<svg xmlns="http://www.w3.org/2000/svg" x="0px" y="0px" width="50" height="90" viewBox="0,0,256,256">
<g fill="none" fill-rule="nonzero" stroke="none" stroke-width="1" stroke-linecap="butt" stroke-linejoin="miter" stroke-miterlimit="10" stroke-dasharray="" stroke-dashoffset="0" font-family="none" font-weight="none" font-size="none" text-anchor="none" style="mix-blend-mode: normal"><g transform="scale(5.33333,5.33333)"><circle cx="24" cy="24" r="20" fill="#fa5252"></circle><path d="M42,27v5.73c-3.24,6.67 -10.08,11.27 -18,11.27c-11.05,0 -20,-8.95 -20,-20c0,-2.09 0.32,-4.1 0.92,-6h28.08c4.97,0 9,4.03 9,9z" fill="#fa5252"></path><path d="M27,14l-1,-1h-4l-1,1h-6v2h3h12h3v-2z" fill="#ffffff"></path><path d="M16,18v14c0,1.1 0.9,2 2,2h12c1.1,0 2,-0.9 2,-2v-14zM24,21c1.1,0 2,0.9 2,2c0,1.1 -0.9,2 -2,2c-1.1,0 -2,-0.9 -2,-2c0,-1.1 0.9,-2 2,-2zM28,31h-8v-2c0,-1.33 2.67,-2 4,-2c1.33,0 4,0.67 4,2z" fill="#ffffff"></path></g></g>
</svg>