<svg xmlns="http://www.w3.org/2000/svg" x="0px" y="0px" width="90" height="50" viewBox="0,0,256,256">
<defs><radialGradient cx="32" cy="31.5" r="31.259" gradientUnits="userSpaceOnUse" id="color-1_119161_gr1"><stop offset="0" stop-color="#afeeff"></stop><stop offset="0.193" stop-color="#bbf1ff"></stop><stop offset="0.703" stop-color="#d7f8ff"></stop><stop offset="1" stop-color="#e1faff"></stop></radialGradient><linearGradient x1="32" y1="59.215" x2="32" y2="13.215" gradientUnits="userSpaceOnUse" id="color-2_119161_gr2"><stop offset="0" stop-color="#ff9757"></stop><stop offset="1" stop-color="#ffb65b"></stop><stop offset="1" stop-color="#ffb65b"></stop></linearGradient><linearGradient x1="46.5" y1="21.909" x2="46.5" y2="8.909" gradientUnits="userSpaceOnUse" id="color-3_119161_gr3"><stop offset="0" stop-color="#ff9757"></stop><stop offset="1" stop-color="#ffb65b"></stop><stop offset="1" stop-color="#ffb65b"></stop></linearGradient><linearGradient x1="39.4978" y1="64.86456" x2="39.4978" y2="32.93334" gradientUnits="userSpaceOnUse" id="color-4_119161_gr4"><stop offset="0" stop-color="#a4a4a4"></stop><stop offset="0.63" stop-color="#7f7f7f"></stop><stop offset="1" stop-color="#6f6f6f"></stop></linearGradient><linearGradient x1="21.99843" y1="55.32411" x2="21.99843" y2="33.57164" gradientUnits="userSpaceOnUse" id="color-5_119161_gr5"><stop offset="0" stop-color="#a4a4a4"></stop><stop offset="0.63" stop-color="#7f7f7f"></stop><stop offset="1" stop-color="#6f6f6f"></stop><stop offset="1" stop-color="#6f6f6f"></stop></linearGradient><linearGradient x1="31.67" y1="30.522" x2="33.275" y2="4.382" gradientUnits="userSpaceOnUse" id="color-6_119161_gr6"><stop offset="0" stop-color="#ff634d"></stop><stop offset="0.204" stop-color="#fe6464"></stop><stop offset="0.521" stop-color="#fc6581"></stop><stop offset="0.794" stop-color="#fa6694"></stop><stop offset="0.989" stop-color="#fa669a"></stop><stop offset="1" stop-color="#fa669a"></stop></linearGradient></defs><g fill="none" fill-rule="nonzero" stroke="none" stroke-width="1" stroke-linecap="butt" stroke-linejoin="miter" stroke-miterlimit="10" stroke-dasharray="" stroke-dashoffset="0" font-family="none" font-weight="none" font-size="none" text-anchor="none" style="mix-blend-mode: normal"><g transform="scale(4,4)"><path d="M60.5,43h-10.357c-1.308,0 -2.499,-0.941 -2.63,-2.242c-0.15,-1.497 1.021,-2.758 2.487,-2.758h7.869c1.451,0 2.789,-0.972 3.071,-2.395c0.379,-1.912 -1.092,-3.605 -2.94,-3.605h-16v-7h18.5c1.933,0 3.5,-1.567 3.5,-3.5v0c0,-1.933 -1.567,-3.5 -3.5,-3.5h-1.393c-0.996,0 -1.92,-0.681 -2.08,-1.664c-0.203,-1.253 0.758,-2.336 1.973,-2.336h0.357c1.308,0 2.499,-0.941 2.63,-2.242c0.15,-1.497 -1.021,-2.758 -2.487,-2.758h-17c-0.828,0 -1.5,-0.672 -1.5,-1.5c0,-0.828 0.672,-1.5 1.5,-1.5h5.857c1.308,0 2.499,-0.941 2.63,-2.242c0.15,-1.497 -1.021,-2.758 -2.487,-2.758h-32.857c-1.308,0 -2.499,0.941 -2.63,2.242c-0.15,1.497 1.021,2.758 2.487,2.758h1.393c0.996,0 1.92,0.681 2.08,1.664c0.203,1.253 -0.758,2.336 -1.973,2.336h-10.811c-2.086,0 -3.958,1.514 -4.168,3.59c-0.241,2.382 1.644,4.41 3.979,4.41h2.302c1.895,0 3.594,1.419 3.693,3.312c0.106,2.018 -1.5,3.688 -3.495,3.688h-3.311c-2.086,0 -3.958,1.514 -4.168,3.59c-0.241,2.382 1.644,4.41 3.979,4.41h17v11h-15.869c-1.451,0 -2.789,0.972 -3.071,2.395c-0.379,1.912 1.092,3.605 2.94,3.605c1.215,0 2.176,1.083 1.973,2.336c-0.16,0.983 -1.084,1.664 -2.08,1.664h-1.704c-2.086,0 -3.958,1.514 -4.168,3.59c-0.241,2.382 1.644,4.41 3.979,4.41h53.811c2.009,0 3.841,-1.398 4.142,-3.385c0.368,-2.434 -1.497,-4.553 -3.85,-4.614c-0.809,-0.021 -1.608,-0.396 -1.923,-1.141c-0.616,-1.459 0.438,-2.86 1.82,-2.86h2.386c1.67,0 3.195,-1.122 3.537,-2.757c0.469,-2.245 -1.255,-4.243 -3.423,-4.243z" fill="url(#color-1_119161_gr1)"></path><path d="M54,22l-22,-12l-22,12v30c0,2.209 1.791,4 4,4h36c2.209,0 4,-1.791 4,-4z" fill="url(#color-2_119161_gr2)"></path><path d="M45,8h3c1.105,0 2,0.895 2,2v9c0,1.105 -0.895,2 -2,2h-3c-1.105,0 -2,-0.895 -2,-2v-9c0,-1.105 0.895,-2 2,-2z" fill="url(#color-3_119161_gr3)"></path><path d="M46,56h-13v-18c0,-1.105 0.895,-2 2,-2h9c1.105,0 2,0.895 2,2z" fill="url(#color-4_119161_gr4)"></path><path d="M25,46h-6c-1.105,0 -2,-0.895 -2,-2v-6c0,-1.105 0.895,-2 2,-2h6c1.105,0 2,0.895 2,2v6c0,1.105 -0.895,2 -2,2z" fill="url(#color-5_119161_gr5)"></path><g fill="url(#color-6_119161_gr6)"><path d="M28.615,8.963l-21.74,12.894c-1.162,0.69 -1.875,1.941 -1.875,3.292v0c0,2.986 3.286,4.833 5.872,3.299l21.125,-12.529l21.131,12.53c2.586,1.533 5.872,-0.313 5.872,-3.3v0c0,-1.351 -0.713,-2.603 -1.875,-3.292l-21.746,-12.894c-2.085,-1.236 -4.679,-1.236 -6.764,0z"></path></g></g></g>
</svg>